<?xml version="1.0" standalone="no"?>
<!DOCTYPE svg PUBLIC "-//W3C//DTD SVG 20010904//EN"
 "http://www.w3.org/TR/2001/REC-SVG-20010904/DTD/svg10.dtd">
<svg version="1.0" xmlns="http://www.w3.org/2000/svg"
 width="534.000000pt" height="534.000000pt" viewBox="0 0 534.000000 534.000000"
 preserveAspectRatio="xMidYMid meet">
<metadata>
Created by potrace 1.14, written by Peter Selinger 2001-2017
</metadata>
<g transform="translate(0.000000,534.000000) scale(0.100000,-0.100000)"
fill="#000000" stroke="none">
<path d="M2210 4972 c0 -4 -240 -6 -532 -5 -293 1 -545 -1 -560 -4 -29 -5 -91
-60 -83 -73 3 -5 0 -10 -6 -12 -7 -2 -11 -46 -10 -133 1 -153 1 -133 -2 -313
-1 -79 1 -146 6 -149 4 -2 3 -12 -1 -21 -7 -14 -7 -59 -3 -212 1 -29 -5 -238
-7 -258 -1 -7 -7 -10 -12 -7 -11 7 -164 7 -210 0 -14 -2 -28 -4 -32 -4 -12 -2
-49 -44 -65 -74 -21 -40 -22 -76 -3 -119 17 -38 62 -82 74 -71 3 3 6 1 6 -4 0
-6 8 -10 18 -8 9 1 25 -2 35 -7 11 -6 17 -5 17 2 0 8 6 8 20 0 15 -8 20 -8 20
1 0 9 3 9 14 0 10 -9 16 -9 21 -1 5 8 11 7 22 -2 9 -7 17 -13 18 -13 1 0 9 6
18 13 10 9 17 10 22 2 3 -6 10 -8 15 -5 4 3 7 -29 6 -70 -1 -41 2 -75 7 -75 6
0 5 -5 0 -12 -11 -15 -10 -58 1 -76 4 -7 3 -12 -3 -12 -5 0 -9 -9 -8 -20 1
-11 6 -20 11 -20 6 0 5 -5 -2 -12 -7 -7 -52 -13 -114 -15 -57 -1 -111 -3 -122
-3 -21 -1 -82 -40 -86 -55 -1 -5 -6 -19 -10 -31 -17 -43 -9 -134 11 -134 5 0
9 -6 9 -13 0 -7 17 -22 38 -33 30 -16 56 -20 139 -19 57 0 103 -3 103 -8 0 -4
3 -6 8 -6 22 4 32 -2 25 -13 -12 -20 -12 -38 -1 -38 7 0 7 -5 1 -12 -5 -7 -8
-60 -7 -118 1 -100 -7 -137 -28 -124 -17 11 -68 10 -68 0 0 -8 -3 -8 -8 0 -4
6 -27 9 -52 7 -25 -2 -57 -4 -72 -5 -16 -1 -28 -5 -28 -10 0 -4 -5 -8 -10 -8
-33 0 -84 -103 -71 -145 2 -5 5 -19 7 -29 2 -11 9 -23 15 -27 6 -4 8 -12 5
-18 -4 -6 0 -11 8 -11 9 0 16 -4 16 -9 0 -8 13 -14 60 -27 8 -3 62 -6 120 -7
l105 -2 0 -155 0 -155 -67 0 c-40 0 -68 4 -68 10 0 7 -3 7 -8 0 -4 -6 -25 -10
-47 -10 -84 1 -147 -63 -150 -152 -1 -18 2 -33 6 -33 7 0 22 -39 20 -52 -1 -5
4 -8 10 -8 6 0 19 -10 28 -22 16 -20 28 -22 132 -23 124 -2 165 -10 152 -28
-10 -14 -10 -558 0 -574 4 -7 4 -14 0 -16 -7 -4 -8 -92 -4 -292 0 -16 0 -61 1
-100 0 -82 1 -92 20 -125 14 -26 40 -55 40 -45 0 3 10 -1 23 -8 12 -7 37 -13
55 -12 17 1 32 -4 32 -9 0 -7 3 -8 8 -1 8 11 272 14 272 3 0 -4 10 -4 23 1 14
5 30 5 40 0 9 -6 17 -6 17 -2 0 5 20 8 45 8 25 0 45 -4 45 -8 0 -5 5 -5 12 -1
16 10 78 12 78 3 0 -4 16 -3 35 1 21 5 35 4 35 -2 0 -5 5 -6 12 -2 15 10 138
11 138 2 0 -4 10 -4 23 1 14 5 30 5 40 0 9 -6 17 -6 17 -2 0 9 98 9 107 0 3
-3 16 -2 29 3 15 6 24 6 24 0 0 -6 9 -6 23 -1 14 5 30 5 40 0 9 -6 17 -6 17
-2 0 9 98 9 107 0 3 -3 16 -2 29 3 15 6 24 6 24 0 0 -6 9 -6 23 -1 14 5 30 5
40 0 9 -6 17 -6 17 -2 0 5 20 8 45 8 25 0 45 -4 45 -9 0 -5 7 -2 17 5 9 8 18
12 19 10 7 -8 95 -18 99 -11 3 5 20 4 39 0 19 -4 37 -5 40 -3 8 9 96 9 96 1 0
-4 11 -3 25 2 17 7 25 6 25 -1 0 -7 5 -8 13 -2 14 10 107 10 124 0 7 -4 14 -4
16 0 6 10 270 9 285 -1 7 -4 12 -4 12 1 0 4 36 8 80 8 44 0 80 -4 80 -8 0 -5
6 -5 13 0 18 11 67 12 67 1 0 -5 6 -6 13 -1 17 11 67 12 67 1 0 -5 6 -6 12 -1
18 11 187 10 181 -1 -4 -5 0 -6 7 -1 20 13 100 16 100 4 0 -6 6 -7 13 -2 6 4
29 7 50 6 26 -2 36 1 31 9 -5 7 -3 8 7 2 17 -11 139 -12 139 -1 0 5 4 5 10 2
5 -3 15 3 22 15 7 11 18 20 24 20 17 0 36 50 39 103 2 31 -1 47 -8 47 -8 0 -8
3 -2 8 15 11 18 85 2 76 -9 -6 -9 -4 -1 7 13 17 13 297 0 318 -6 10 -6 12 3 7
13 -9 11 29 -3 52 -4 7 -4 18 1 25 6 7 9 62 8 122 -1 61 3 118 8 129 7 14 6
16 -4 11 -9 -6 -11 -2 -6 15 3 13 1 31 -6 39 -9 12 -9 13 1 7 13 -8 17 15 5
28 -10 10 -13 37 -3 31 10 -6 7 66 -4 84 -6 9 -5 12 0 8 12 -7 13 108 2 119
-4 4 -3 14 4 21 9 11 9 16 -1 23 -7 4 -9 10 -4 13 10 6 11 237 1 253 -4 6 -4
14 -1 18 4 4 8 16 10 27 2 14 -1 18 -9 13 -8 -5 -8 -1 1 10 13 15 13 19 0 27
-8 5 -9 9 -4 9 14 0 18 57 5 65 -7 4 -7 11 -2 18 10 13 10 66 0 82 -4 6 -3 17
2 25 5 8 5 21 -1 31 -6 12 -5 20 1 24 8 5 7 12 -2 23 -10 12 -10 14 0 8 7 -4
12 -1 12 9 0 10 -5 13 -12 9 -7 -5 -8 -3 -2 7 14 24 16 51 2 43 -10 -6 -10 -5
-1 7 16 20 17 31 1 40 -11 7 -11 9 1 9 11 0 11 3 0 17 -9 11 -10 14 -2 9 9 -5
12 3 10 28 -2 20 -6 38 -10 42 -3 4 -2 15 4 26 8 14 7 24 -3 36 -7 9 -8 13 -3
10 6 -4 10 15 11 48 0 31 -4 54 -10 54 -6 0 -4 5 4 10 13 9 13 10 0 10 -9 0
-11 3 -5 8 14 10 15 123 1 115 -8 -5 -8 -3 0 8 5 8 10 23 10 34 -1 11 4 23 9
27 6 5 3 8 -7 8 -15 0 -16 4 -7 28 13 34 13 33 -3 43 -7 5 -8 9 -2 9 6 0 10
10 9 23 -1 12 3 25 9 29 7 5 4 8 -7 8 -12 0 -15 4 -11 12 13 21 14 59 1 51 -9
-5 -9 -3 0 8 10 12 10 18 0 29 -9 10 -9 11 1 5 16 -8 13 26 -3 37 -6 5 -6 8 2
8 6 0 10 9 8 20 -2 11 2 20 8 20 8 0 8 3 2 8 -14 9 -18 65 -5 57 6 -3 7 1 4 9
-3 9 -11 16 -16 16 -6 0 -5 7 2 15 9 11 10 19 3 26 -6 6 -8 22 -4 38 9 34 8
62 -3 80 -7 10 -6 12 4 6 10 -6 12 -4 7 8 -4 10 -1 17 6 17 8 0 8 3 -2 9 -7 5
-11 13 -7 19 3 6 2 13 -4 17 -6 4 -7 12 -3 18 13 20 12 137 -1 137 -8 0 -8 2
1 8 14 9 12 62 -2 62 -5 0 -3 5 5 10 8 5 11 10 6 10 -5 0 -2 8 5 17 12 14 12
16 0 8 -11 -6 -13 -4 -8 8 4 10 1 17 -6 17 -8 0 -8 3 -2 8 15 10 17 62 3 62
-7 0 -3 7 8 16 10 8 14 13 7 9 -9 -4 -11 9 -8 55 3 43 1 59 -7 54 -8 -5 -8 -3
-2 7 13 20 13 101 0 118 -8 11 -8 13 0 8 7 -4 12 2 12 18 0 14 -6 25 -12 25
-7 0 -8 3 -1 8 15 10 15 192 1 192 -8 0 -8 2 0 8 14 9 13 155 -1 164 -6 5 -6
8 2 8 12 0 11 60 -3 103 -12 39 -92 96 -114 82 -5 -3 -11 -1 -15 5 -4 6 -11 8
-16 4 -17 -10 -59 -12 -65 -2 -3 4 -10 5 -16 2 -13 -8 -214 -8 -228 1 -5 3
-10 3 -10 -2 0 -9 -523 -8 -546 1 -8 3 -14 2 -14 -2 0 -8 -205 -6 -226 2 -8 3
-14 2 -14 -2 0 -6 -531 -7 -550 -1 -3 1 -9 0 -15 -1 -25 -5 -212 -3 -221 3 -6
3 -16 2 -23 -3 -8 -4 -27 -4 -42 0 -16 5 -29 6 -29 2z m2050 -1146 c0 -2 -8
-10 -17 -17 -16 -13 -17 -12 -4 4 13 16 21 21 21 13z m25 -126 c3 -5 1 -10 -4
-10 -6 0 -11 5 -11 10 0 6 2 10 4 10 3 0 8 -4 11 -10z m-38 -435 c0 -8 -4 -12
-9 -9 -5 3 -6 10 -3 15 9 13 12 11 12 -6z m79 -85 c0 -12 -4 -16 -9 -11 -5 5
-6 14 -3 20 10 15 12 14 12 -9z m-82 -126 c3 -8 2 -12 -4 -9 -6 3 -10 10 -10
16 0 14 7 11 14 -7z m41 -114 c3 -5 1 -10 -4 -10 -6 0 -11 5 -11 10 0 6 2 10
4 10 3 0 8 -4 11 -10z m-155 -1236 c0 -8 -19 -13 -24 -6 -3 5 1 9 9 9 8 0 15
-2 15 -3z"/>
</g>
</svg>
